<svg xmlns="http://www.w3.org/2000/svg" version="1.1" xmlns:xlink="http://www.w3.org/1999/xlink" xmlns:svgjs="http://svgjs.dev/svgjs" width="1000" height="1000"><g clip-path="url(#SvgjsClipPath1087)"><rect width="1000" height="1000" fill="#ffffff"></rect><g transform="matrix(25,0,0,25,0,0)"><svg xmlns="http://www.w3.org/2000/svg" version="1.1" xmlns:xlink="http://www.w3.org/1999/xlink" xmlns:svgjs="http://svgjs.dev/svgjs" width="40" height="40"><svg width="40" height="40" viewBox="0 0 40 40" fill="none" xmlns="http://www.w3.org/2000/svg">
<path d="M9.85404 6.93366C4.56175 10.7338 0.140347 14.134 0.00636468 14.4007C-0.0606263 14.734 0.408311 15.7341 1.07822 16.6008L2.35105 18.2009L10.7919 12.1339C15.4813 8.73375 19.5677 6.00028 19.9697 6.00028C20.3046 6.00028 24.3911 8.73375 29.0135 12.1339L37.4543 18.2009L38.7272 16.6008C39.3971 15.7341 40 14.8007 40 14.534C40 14.134 20.3716 0 19.8357 0C19.7017 0.0666698 15.2133 3.13348 9.85404 6.93366Z" fill="black"></path>
<path d="M26.6018 1.53341C26.6018 2.66679 27.6737 3.86685 30.6213 5.86694L34.6407 8.73375V0H30.6213C26.8698 0 26.6018 0.13334 26.6018 1.53341Z" fill="black"></path>
<path d="M12.3997 12.5339L5.23166 17.6675V26.1346L5.16467 34.6683H34.6407V26.1346L34.5737 17.6675L27.6737 12.6673C23.8552 9.93381 20.5056 7.66703 20.1707 7.53369C19.8357 7.46702 16.3522 9.66713 12.3997 12.5339ZM17.759 18.6676C19.9027 20.0009 19.9027 20.0009 22.1134 18.6676C23.5872 17.7342 25.4629 17.3342 28.2096 17.3342H32.162L31.6931 19.4676C31.4921 20.6676 30.8222 22.3344 30.2193 23.2011C29.0805 24.8678 25.5299 26.6679 23.2522 26.6679C22.1134 26.6679 21.9124 27.068 21.9124 30.0014C21.9124 33.2682 21.8454 33.3349 19.9027 33.3349C17.96 33.3349 17.893 33.2682 17.893 30.0014C17.893 27.068 17.692 26.6679 16.5531 26.6679C14.2755 26.6679 10.7249 24.8678 9.58608 23.2011C8.98316 22.3344 8.31325 20.6676 8.11228 19.4676L7.71033 17.3342H11.5958C14.3424 17.3342 16.2182 17.7342 17.759 18.6676Z" fill="black"></path>
<path d="M9.18413 19.0009C9.18413 20.3343 11.5288 23.4678 13.2036 24.3345C16.2182 25.8679 17.692 25.6012 18.4959 23.3344C19.0988 21.401 19.0318 21.201 17.0221 20.001C15.0793 18.8009 9.18413 18.0675 9.18413 19.0009Z" fill="black"></path>
<path d="M23.1183 19.7343C22.1134 20.2676 20.7736 21.601 20.2376 22.6677C19.0988 24.8012 18.8308 32.0015 19.9027 32.0015C20.3046 32.0015 20.5726 30.4681 20.5726 28.668C20.5726 25.4012 20.6396 25.3345 22.5823 25.3345C25.4629 25.3345 28.4106 23.6678 29.6164 21.3343C30.1523 20.2676 30.6213 19.2676 30.6213 19.0009C30.6213 18.2675 24.86 18.8009 23.1183 19.7343Z" fill="black"></path>
<path d="M2.48503 40.0019H37.3204V36.0017H2.48503V40.0019Z" fill="black"></path>
</svg></svg></g></g><defs><clipPath id="SvgjsClipPath1087"><rect width="1000" height="1000" x="0" y="0" rx="0" ry="0"></rect></clipPath></defs></svg>