<svg width="38" height="38" viewBox="0 0 38 38" fill="none" xmlns="http://www.w3.org/2000/svg">
<g clip-path="url(#clip0_34_90)">
<rect width="38" height="38" rx="19" fill="#67AA4F"/>
<path d="M24.3048 21.8466C25.3832 20.6724 26.4762 19.265 26.4762 17.4233C26.4762 16.2502 26.0568 15.1251 25.3102 14.2955C24.5636 13.466 23.5511 13 22.4952 13C21.2213 13 20.3238 13.4021 19.2381 14.6085C18.1524 13.4021 17.2549 13 15.981 13C14.9251 13 13.9126 13.466 13.166 14.2955C12.4194 15.1251 12 16.2502 12 17.4233C12 19.273 13.0857 20.6804 14.1714 21.8466L19.2381 27.4762L24.3048 21.8466Z" stroke="#3E6030" stroke-width="2" stroke-linecap="round" stroke-linejoin="round"/>
<path d="M18.8769 14.8095L16.9427 17.1485C16.8099 17.3078 16.7045 17.4974 16.6326 17.7063C16.5607 17.9151 16.5237 18.1391 16.5237 18.3653C16.5237 18.5916 16.5607 18.8156 16.6326 19.0244C16.7045 19.2333 16.8099 19.4228 16.9427 19.5822C17.4785 20.2302 18.3345 20.2539 18.903 19.6375L20.2557 18.1362C20.5947 17.7642 21.0362 17.5581 21.494 17.5581C21.9518 17.5581 22.3933 17.7642 22.7323 18.1362L24.6665 20.2381" stroke="#3E6030" stroke-width="2" stroke-linecap="round" stroke-linejoin="round"/>
<path d="M23.7617 22.9524L22.8569 21.1429" stroke="#3E6030" stroke-width="2" stroke-linecap="round" stroke-linejoin="round"/>
<path d="M21.0476 24.7619L19.238 23.8571" stroke="#3E6030" stroke-width="2" stroke-linecap="round" stroke-linejoin="round"/>
</g>
<defs>
<clipPath id="clip0_34_90">
<rect width="38" height="38" fill="white"/>
</clipPath>
</defs>
</svg>
