<svg width="40" height="54" viewBox="0 0 40 54" fill="none" xmlns="http://www.w3.org/2000/svg">
<path d="M9.85404 6.93366C4.56175 10.7338 0.140347 14.134 0.00636468 14.4007C-0.0606263 14.734 0.408311 15.7341 1.07822 16.6008L2.35105 18.2009L10.7919 12.1339C15.4813 8.73375 19.5677 6.00029 19.9697 6.00029C20.3046 6.00029 24.3911 8.73375 29.0135 12.1339L37.4543 18.2009L38.7272 16.6008C39.3971 15.7341 40 14.8007 40 14.534C40 14.134 20.3716 0 19.8357 0C19.7017 0.0666698 15.2133 3.13348 9.85404 6.93366Z" fill="white"/>
<path d="M26.6018 1.53341C26.6018 2.66679 27.6737 3.86685 30.6213 5.86695L34.6407 8.73375V0H30.6213C26.8698 0 26.6018 0.13334 26.6018 1.53341Z" fill="white"/>
<path d="M12.3997 12.5339L5.23166 17.6675V26.1346L5.16467 34.6683H34.6407V26.1346L34.5737 17.6675L27.6737 12.6673C23.8552 9.93381 20.5056 7.66703 20.1707 7.53369C19.8357 7.46702 16.3522 9.66713 12.3997 12.5339ZM17.759 18.6676C19.9027 20.001 19.9027 20.001 22.1134 18.6676C23.5872 17.7342 25.4629 17.3342 28.2096 17.3342H32.1621L31.6931 19.4676C31.4921 20.6677 30.8222 22.3344 30.2193 23.2011C29.0805 24.8678 25.5299 26.6679 23.2522 26.6679C22.1134 26.6679 21.9124 27.068 21.9124 30.0014C21.9124 33.2682 21.8454 33.3349 19.9027 33.3349C17.96 33.3349 17.893 33.2682 17.893 30.0014C17.893 27.068 17.692 26.6679 16.5531 26.6679C14.2755 26.6679 10.7249 24.8678 9.58608 23.2011C8.98316 22.3344 8.31325 20.6677 8.11228 19.4676L7.71033 17.3342H11.5958C14.3424 17.3342 16.2182 17.7342 17.759 18.6676Z" fill="white"/>
<path d="M9.18413 19.0009C9.18413 20.3343 11.5288 23.4678 13.2036 24.3345C16.2182 25.8679 17.692 25.6012 18.4959 23.3344C19.0988 21.401 19.0318 21.201 17.0221 20.001C15.0793 18.8009 9.18413 18.0675 9.18413 19.0009Z" fill="white"/>
<path d="M23.1183 19.7343C22.1134 20.2676 20.7736 21.601 20.2377 22.6677C19.0988 24.8012 18.8308 32.0015 19.9027 32.0015C20.3046 32.0015 20.5726 30.4681 20.5726 28.668C20.5726 25.4012 20.6396 25.3345 22.5823 25.3345C25.463 25.3345 28.4106 23.6678 29.6164 21.3343C30.1523 20.2676 30.6213 19.2676 30.6213 19.0009C30.6213 18.2675 24.86 18.8009 23.1183 19.7343Z" fill="white"/>
<path d="M2.48503 40.0019H37.3204V36.0017H2.48503V40.0019Z" fill="white"/>
<path d="M6.22703 53.9615C5.86041 53.9615 5.46463 53.9444 5.03969 53.9103C4.62308 53.8761 4.21897 53.8333 3.82735 53.782C3.44407 53.7308 3.11911 53.6752 2.85248 53.6154V45.3329C3.32742 45.2304 3.83152 45.1534 4.36478 45.1021C4.90637 45.0423 5.4563 45.0124 6.01456 45.0124C6.68947 45.0124 7.26439 45.1192 7.73933 45.3329C8.2226 45.5381 8.59338 45.8244 8.85168 46.1919C9.11831 46.5595 9.25163 46.9826 9.25163 47.4612C9.25163 47.8886 9.13914 48.269 8.91417 48.6023C8.69753 48.9357 8.42257 49.1921 8.08928 49.3716C8.33925 49.44 8.58088 49.5553 8.81418 49.7177C9.04749 49.8716 9.23913 50.081 9.38911 50.346C9.53909 50.6024 9.61408 50.9315 9.61408 51.3332C9.61408 51.8119 9.48076 52.2521 9.21413 52.6538C8.9475 53.047 8.56005 53.3632 8.05179 53.6025C7.55185 53.8419 6.9436 53.9615 6.22703 53.9615ZM6.18954 52.423C6.6728 52.423 7.06025 52.3119 7.35188 52.0897C7.64351 51.8674 7.78932 51.5811 7.78932 51.2306C7.78932 50.8631 7.63934 50.5939 7.33938 50.4229C7.03942 50.252 6.65614 50.1665 6.18954 50.1665H4.30229V48.8459H6.21453C6.63948 48.8459 6.96443 48.7391 7.1894 48.5254C7.41437 48.3117 7.52686 48.0382 7.52686 47.7048C7.52686 47.4741 7.4602 47.2775 7.32688 47.1151C7.2019 46.9441 7.03109 46.8116 6.81445 46.7176C6.60615 46.6236 6.36035 46.5766 6.07705 46.5766C5.80209 46.5766 5.53546 46.5894 5.27716 46.615C5.01886 46.6321 4.78972 46.662 4.58975 46.7048V52.2692C4.74806 52.3033 4.92721 52.3333 5.12718 52.3589C5.33548 52.3845 5.53546 52.4016 5.7271 52.4102C5.91874 52.4187 6.07288 52.423 6.18954 52.423Z" fill="white"/>
<path d="M15.1008 54C14.5009 54 13.9343 53.8932 13.4011 53.6795C12.8761 53.4572 12.4095 53.1495 12.0013 52.7564C11.6013 52.3546 11.2847 51.8802 11.0514 51.3332C10.8264 50.7776 10.7139 50.1708 10.7139 49.5126C10.7139 48.8459 10.8264 48.239 11.0514 47.692C11.2847 47.145 11.6013 46.6749 12.0013 46.2817C12.4095 45.88 12.8761 45.5723 13.4011 45.3586C13.9343 45.1363 14.5009 45.0252 15.1008 45.0252C15.7008 45.0252 16.2632 45.1363 16.7881 45.3586C17.313 45.5723 17.7755 45.88 18.1754 46.2817C18.5837 46.6749 18.9003 47.145 19.1253 47.692C19.3586 48.239 19.4753 48.8459 19.4753 49.5126C19.4753 50.1708 19.3586 50.7776 19.1253 51.3332C18.9003 51.8802 18.5837 52.3546 18.1754 52.7564C17.7755 53.1495 17.313 53.4572 16.7881 53.6795C16.2632 53.8932 15.7008 54 15.1008 54ZM15.1008 52.3076C15.6008 52.3076 16.0465 52.188 16.4382 51.9486C16.8298 51.7007 17.1381 51.3674 17.363 50.9486C17.588 50.5298 17.7005 50.0511 17.7005 49.5126C17.7005 48.9741 17.588 48.4955 17.363 48.0766C17.1381 47.6493 16.8298 47.3159 16.4382 47.0766C16.0465 46.8287 15.6008 46.7048 15.1008 46.7048C14.6009 46.7048 14.1551 46.8287 13.7635 47.0766C13.3719 47.3159 13.0594 47.6493 12.8261 48.0766C12.6012 48.504 12.4887 48.9827 12.4887 49.5126C12.4887 50.0425 12.6012 50.5212 12.8261 50.9486C13.0511 51.3674 13.3594 51.7007 13.751 51.9486C14.151 52.188 14.6009 52.3076 15.1008 52.3076Z" fill="white"/>
<path d="M27.9241 53.8718L22.9623 48.6921V53.8077H21.225V45.1534H21.8499L26.8118 50.4101V45.2175H28.549V53.8718H27.9241Z" fill="white"/>
<path d="M29.8989 53.8077L33.7483 45.1534H34.6232L38.4727 53.8077H36.4355L34.1983 48.0638L31.9361 53.8077H29.8989ZM31.8236 52.1409V50.6922H36.523V52.1409H31.8236Z" fill="white"/>
</svg>
