<svg width="38" height="38" viewBox="0 0 38 38" fill="none" xmlns="http://www.w3.org/2000/svg">
<rect width="38" height="38" rx="19" fill="#67AA4F"/>
<path d="M17.4167 21.7708H19.3958C19.9207 21.7708 20.4241 21.5623 20.7953 21.1911C21.1665 20.82 21.375 20.3166 21.375 19.7917C21.375 19.2668 21.1665 18.7634 20.7953 18.3922C20.4241 18.021 19.9207 17.8125 19.3958 17.8125H16.4271C15.8333 17.8125 15.3385 18.0104 15.0417 18.4063L9.5 23.75" stroke="#3E6030" stroke-width="2" stroke-linecap="round" stroke-linejoin="round"/>
<path d="M14.25 27.3125L15.7673 25.9593C16.0518 25.5726 16.5259 25.3793 17.0949 25.3793H20.8881C21.9312 25.3793 22.8795 24.9927 23.5433 24.2194L27.9055 19.9664C28.2714 19.6139 28.485 19.1277 28.4992 18.6147C28.5135 18.1017 28.3272 17.604 27.9814 17.231C27.6355 16.858 27.1585 16.6403 26.6552 16.6258C26.1519 16.6113 25.6636 16.8012 25.2977 17.1536L21.3148 20.9233" stroke="#3E6030" stroke-width="2" stroke-linecap="round" stroke-linejoin="round"/>
<path d="M9.5 22.5625L15.4375 28.5" stroke="#3E6030" stroke-width="2" stroke-linecap="round" stroke-linejoin="round"/>
<path d="M22.5625 19C23.8742 19 24.9375 17.6708 24.9375 16.0313C24.9375 14.3917 23.8742 13.0625 22.5625 13.0625C21.2508 13.0625 20.1875 14.3917 20.1875 16.0313C20.1875 17.6708 21.2508 19 22.5625 19Z" stroke="#3E6030" stroke-width="2" stroke-linecap="round" stroke-linejoin="round"/>
<path d="M12.4688 15.4375C14.1083 15.4375 15.4375 14.1083 15.4375 12.4688C15.4375 10.8292 14.1083 9.5 12.4688 9.5C10.8292 9.5 9.5 10.8292 9.5 12.4688C9.5 14.1083 10.8292 15.4375 12.4688 15.4375Z" stroke="#3E6030" stroke-width="2" stroke-linecap="round" stroke-linejoin="round"/>
</svg>
