<svg width="38" height="39" viewBox="0 0 38 39" fill="none" xmlns="http://www.w3.org/2000/svg">
<rect y="0.5" width="38" height="38" rx="19" fill="#67AA4F"/>
<path d="M27 20.8987C27 25.398 23.5 27.6476 19.34 28.9524C19.1222 29.0188 18.8855 29.0156 18.67 28.9434C14.5 27.6476 11 25.398 11 20.8987V14.5998C11 14.3611 11.1054 14.1323 11.2929 13.9635C11.4804 13.7948 11.7348 13.7 12 13.7C14 13.7 16.5 12.6201 18.24 11.2524C18.4519 11.0895 18.7214 11 19 11C19.2786 11 19.5481 11.0895 19.76 11.2524C21.51 12.6291 24 13.7 26 13.7C26.2652 13.7 26.5196 13.7948 26.7071 13.9635C26.8946 14.1323 27 14.3611 27 14.5998V20.8987Z" stroke="#3E6030" stroke-width="2" stroke-linecap="round" stroke-linejoin="round"/>
<path d="M16 20L18 22L22 18" stroke="#3E6030" stroke-width="2" stroke-linecap="round" stroke-linejoin="round"/>
</svg>
