<svg width="18" height="18" viewBox="0 0 18 18" fill="none" xmlns="http://www.w3.org/2000/svg">
<path d="M8.57335 0.278317C8.61278 0.194755 8.67371 0.124416 8.74924 0.0752377C8.82477 0.0260596 8.9119 0 9.00081 0C9.08971 0 9.17685 0.0260596 9.25238 0.0752377C9.32791 0.124416 9.38883 0.194755 9.42827 0.278317L11.5071 4.6943C11.644 4.98496 11.8462 5.23642 12.0962 5.42711C12.3462 5.6178 12.6366 5.74202 12.9425 5.7891L17.5914 6.5026C17.6795 6.51599 17.7623 6.55496 17.8304 6.6151C17.8984 6.67525 17.9491 6.75417 17.9766 6.84294C18.0041 6.93171 18.0074 7.02679 17.9861 7.11742C17.9648 7.20805 17.9197 7.29062 17.856 7.35579L14.4939 10.7893C14.2722 11.0159 14.1063 11.2956 14.0105 11.6044C13.9147 11.9131 13.8919 12.2417 13.9441 12.5617L14.7378 17.4128C14.7533 17.5051 14.7438 17.6002 14.7103 17.6871C14.6769 17.7741 14.6207 17.8494 14.5484 17.9045C14.4761 17.9596 14.3904 17.9923 14.3012 17.9988C14.212 18.0053 14.1229 17.9854 14.044 17.9413L9.88813 15.6498C9.6143 15.499 9.30964 15.4202 9.00036 15.4202C8.69107 15.4202 8.38642 15.499 8.11259 15.6498L3.95766 17.9413C3.87877 17.9851 3.78974 18.0048 3.70069 17.9982C3.61165 17.9916 3.52617 17.9588 3.45397 17.9038C3.38178 17.8487 3.32577 17.7735 3.29231 17.6867C3.25886 17.5999 3.2493 17.505 3.26473 17.4128L4.05755 12.5627C4.10993 12.2425 4.08724 11.9137 3.99144 11.6048C3.89565 11.2958 3.72963 11.0159 3.5077 10.7893L0.145607 7.35673C0.0813469 7.29164 0.0358104 7.20893 0.0141846 7.11802C-0.0074411 7.02712 -0.00428665 6.93167 0.0232885 6.84255C0.0508637 6.75343 0.101751 6.67422 0.170153 6.61395C0.238556 6.55369 0.321724 6.51478 0.410183 6.50166L5.05826 5.7891C5.36447 5.74238 5.65526 5.61833 5.90561 5.42762C6.15597 5.2369 6.35838 4.98525 6.49543 4.6943L8.57335 0.278317Z" fill="#67AA4F"/>
</svg>
