<svg width="32" height="32" viewBox="0 0 32 32" fill="none" xmlns="http://www.w3.org/2000/svg">
<path d="M15.9998 2.66699C23.3635 2.66699 29.3332 8.63669 29.3332 16.0003C29.3332 23.364 23.3635 29.3337 15.9998 29.3337C8.6362 29.3337 2.6665 23.364 2.6665 16.0003C2.6665 8.63669 8.6362 2.66699 15.9998 2.66699ZM20.5992 21.4355C20.8441 20.6834 21.9938 13.184 22.135 11.7058C22.178 11.2585 22.0362 10.9609 21.7598 10.8276C21.4247 10.667 20.9289 10.747 20.3526 10.9549C19.5629 11.2397 9.46893 15.5252 8.8859 15.7737C8.33317 16.0088 7.81014 16.2646 7.81014 16.6361C7.81014 16.8973 7.96529 17.044 8.39196 17.1961C8.83559 17.3543 9.95378 17.6931 10.615 17.8755C11.2514 18.0512 11.9744 17.8985 12.3804 17.6464C12.8101 17.3791 17.775 14.0579 18.1307 13.7664C18.4865 13.4755 18.7707 13.8482 18.4798 14.1397C18.1889 14.4306 14.7817 17.7379 14.332 18.1961C13.7859 18.7518 14.1732 19.3282 14.5398 19.5591C14.9574 19.8227 17.9635 21.8385 18.4162 22.1621C18.8689 22.4858 19.3277 22.6324 19.7483 22.6324C20.1689 22.6318 20.3901 22.0779 20.5992 21.4355Z" fill="white"/>
</svg>
