<svg width="32" height="32" viewBox="0 0 32 32" fill="none" xmlns="http://www.w3.org/2000/svg">
<path d="M25.4359 6.57056C22.6599 3.79322 18.8732 2.39189 14.8972 2.71189C9.55186 3.14122 4.86653 6.85856 3.29853 11.9866C2.17853 15.6506 2.64919 19.4759 4.47319 22.6359L2.74519 28.3732C2.57986 28.9239 3.08253 29.4426 3.63853 29.2946L9.64386 27.6852C11.5892 28.7466 13.7785 29.3052 16.0079 29.3066H16.0132C21.6065 29.3066 26.7745 25.8852 28.5625 20.5852C30.3039 15.4172 29.0159 10.1546 25.4359 6.57056ZM22.5305 20.7386C22.2532 21.5159 20.8945 22.2652 20.2839 22.3199C19.6732 22.3759 19.1012 22.5959 16.2905 21.4879C12.9079 20.1546 10.7719 16.6866 10.6065 16.4652C10.4399 16.2426 9.24786 14.6612 9.24786 13.0239C9.24786 11.3866 10.1079 10.5812 10.4132 10.2492C10.7185 9.91589 11.0785 9.83322 11.3012 9.83322C11.5225 9.83322 11.7452 9.83322 11.9385 9.84122C12.1759 9.85056 12.4385 9.86256 12.6879 10.4159C12.9839 11.0746 13.6305 12.7199 13.7132 12.8866C13.7959 13.0532 13.8519 13.2479 13.7412 13.4692C13.6305 13.6906 13.5745 13.8292 13.4092 14.0239C13.2425 14.2186 13.0599 14.4572 12.9105 14.6066C12.7439 14.7719 12.5705 14.9532 12.7639 15.2852C12.9585 15.6186 13.6252 16.7079 14.6145 17.5892C15.8865 18.7226 16.9572 19.0732 17.2905 19.2412C17.6239 19.4079 17.8172 19.3799 18.0119 19.1572C18.2065 18.9359 18.8439 18.1866 19.0652 17.8532C19.2865 17.5199 19.5092 17.5759 19.8145 17.6866C20.1199 17.7972 21.7559 18.6026 22.0879 18.7692C22.4212 18.9359 22.6425 19.0186 22.7252 19.1572C22.8079 19.2946 22.8079 19.9612 22.5305 20.7386Z" fill="white"/>
</svg>
